<svg width="11" height="11" viewBox="0 0 11 11" fill="none" xmlns="http://www.w3.org/2000/svg">
<path d="M3.66669 4.16667H3.67127M0.916687 2.88334L0.916687 4.93416C0.916687 5.15837 0.916687 5.27047 0.942015 5.37597C0.96447 5.4695 1.00151 5.55892 1.05177 5.64093C1.10846 5.73344 1.18772 5.81271 1.34626 5.97125L4.86105 9.48604C5.40558 10.0306 5.67784 10.3028 5.99179 10.4048C6.26795 10.4946 6.56543 10.4946 6.84158 10.4048C7.15554 10.3028 7.4278 10.0306 7.97232 9.48603L8.98605 8.47231C9.53057 7.92778 9.80284 7.65552 9.90484 7.34157C9.99457 7.06541 9.99457 6.76793 9.90484 6.49177C9.80284 6.17782 9.53057 5.90556 8.98605 5.36104L5.47126 1.84625C5.31272 1.68771 5.23345 1.60844 5.14095 1.55175C5.05893 1.50149 4.96952 1.46445 4.87598 1.442C4.77049 1.41667 4.65838 1.41667 4.43417 1.41667L2.38335 1.41667C1.86997 1.41667 1.61328 1.41667 1.4172 1.51658C1.24471 1.60447 1.10448 1.7447 1.0166 1.91718C0.916687 2.11327 0.916687 2.36996 0.916687 2.88334ZM3.89585 4.16667C3.89585 4.29324 3.79325 4.39584 3.66669 4.39584C3.54012 4.39584 3.43752 4.29324 3.43752 4.16667C3.43752 4.04011 3.54012 3.9375 3.66669 3.9375C3.79325 3.9375 3.89585 4.04011 3.89585 4.16667Z" stroke="white" stroke-linecap="round" stroke-linejoin="round"/>
</svg>
